# xmcd
#
# Track frame offsets: 
#        150
#        26465
#        59747
#        77362
#        111700
#        139397
#        170807
#        198630
#        228387
#        232050
#        236522
#        240917
#        246367
#        255780
#        269232
#        285612
#
# Disc length: 3851 seconds
#
# Revision: 2
# Processed by: cddbd v1.5.2PL0 Copyright (c) Steve Scherf et al.
# Submitted via: ExactAudioCopy v0.95b3
#
DISCID=ee0f0910
DTITLE=Various Artist - That's Eurobeat Vol. 27 [ALCB-270]
DYEAR=1991
DGENRE=Eurobeat
TTITLE0=Santa Claus and D'Jingle Bells - Rock Me Babe (Electric Version)
TTITLE1=Mark Farina - Rock Of Love (Power Mix)
TTITLE2=Baby Baby - Sex Success
TTITLE3=Ricky Davies - Maybe (The Hit Mix)
TTITLE4=Ken Laszlo - Happy Song (Happy Mix)
TTITLE5=Mela - Eyes Of The Tiger (Tiger Mix)
TTITLE6=Alphatown - The Fire (Fire Version)
TTITLE7=Antonella - Movin' (Oh-Oh Euro Mix)
TTITLE8=F.C.F - Hot Girl (Last Version)
TTITLE9=Chip Chip - Radio (Last Version)
TTITLE10=Femminucce - Sing (Last Version)
TTITLE11=Santa Claus and D'Jingle Bells - My Chica (Last Version)
TTITLE12=Mister Black - Brown (Last Version)
TTITLE13=Ricky Davies - That's Love (Last Version)
TTITLE14=Alan Barcklay - Girl (Last Version)
TTITLE15=Superlove - You And Me (Last Version)
EXTD=YEAR: 1991
EXTT0=
EXTT1=
EXTT2=
EXTT3=
EXTT4=
EXTT5=
EXTT6=
EXTT7=
EXTT8=
EXTT9=
EXTT10=
EXTT11=
EXTT12=
EXTT13=
EXTT14=
EXTT15=
PLAYORDER=
